<?xml version="1.0" encoding="utf-8"?>
<svg version="1.1" xmlns:xlink="http://www.w3.org/1999/xlink" width="16px" height="12px" xmlns="http://www.w3.org/2000/svg">
  <g transform="matrix(1 0 0 1 -777 -733 )">
    <path d="M 10.5833333333333 7.02272727272727  C 10.6388888888889 6.95454545454546  10.6666666666667 6.88636363636364  10.6666666666667 6.81818181818182  C 10.6666666666667 6.73863636363636  10.6416666666667 6.67329545454546  10.5916666666667 6.62215909090909  C 10.5416666666667 6.57102272727273  10.4777777777778 6.54545454545455  10.4 6.54545454545455  L 8.53333333333333 6.54545454545455  L 8.53333333333333 3.54545454545455  C 8.53333333333333 3.47159090909091  8.50694444444444 3.40767045454545  8.45416666666667 3.35369318181818  C 8.40138888888889 3.29971590909091  8.33888888888889 3.27272727272727  8.26666666666667 3.27272727272727  L 6.66666666666667 3.27272727272727  C 6.59444444444445 3.27272727272727  6.53194444444445 3.29971590909091  6.47916666666667 3.35369318181818  C 6.42638888888889 3.40767045454545  6.4 3.47159090909091  6.4 3.54545454545455  L 6.4 6.54545454545455  L 4.53333333333333 6.54545454545455  C 4.46111111111111 6.54545454545455  4.39861111111111 6.57244318181818  4.34583333333333 6.62642045454546  C 4.29305555555556 6.68039772727273  4.26666666666667 6.74431818181818  4.26666666666667 6.81818181818182  C 4.26666666666667 6.89772727272727  4.29166666666667 6.96306818181818  4.34166666666667 7.01420454545455  L 7.275 10.0142045454545  C 7.325 10.0653409090909  7.38888888888889 10.0909090909091  7.46666666666667 10.0909090909091  C 7.54444444444445 10.0909090909091  7.60833333333333 10.0653409090909  7.65833333333333 10.0142045454545  L 10.5833333333333 7.02272727272727  Z M 15.3041666666667 6.69460227272727  C 15.7680555555556 7.28835227272727  16 7.96590909090909  16 8.72727272727273  C 16 9.63068181818182  15.6875 10.4019886363636  15.0625 11.0411931818182  C 14.4375 11.6803977272727  13.6833333333333 12  12.8 12  L 3.73333333333333 12  C 2.70555555555556 12  1.82638888888889 11.6264204545455  1.09583333333333 10.8792613636364  C 0.365277777777778 10.1321022727273  0 9.23295454545455  0 8.18181818181818  C 0 7.44318181818182  0.194444444444444 6.76136363636364  0.583333333333333 6.13636363636364  C 0.972222222222222 5.51136363636363  1.49444444444444 5.04261363636363  2.15 4.73011363636364  C 2.13888888888889 4.55965909090909  2.13333333333333 4.4375  2.13333333333333 4.36363636363636  C 2.13333333333333 3.15909090909091  2.55 2.13068181818182  3.38333333333333 1.27840909090909  C 4.21666666666667 0.426136363636364  5.22222222222222 0  6.4 0  C 7.26666666666667 0  8.05972222222222 0.247159090909091  8.77916666666667 0.741477272727272  C 9.49861111111111 1.23579545454546  10.0222222222222 1.89204545454546  10.35 2.71022727272727  C 10.7444444444444 2.35795454545454  11.2055555555556 2.18181818181818  11.7333333333333 2.18181818181818  C 12.3222222222222 2.18181818181818  12.825 2.39488636363636  13.2416666666667 2.82102272727273  C 13.6583333333333 3.24715909090909  13.8666666666667 3.76136363636364  13.8666666666667 4.36363636363636  C 13.8666666666667 4.79545454545455  13.7527777777778 5.1875  13.525 5.53977272727273  C 14.2472222222222 5.71590909090909  14.8402777777778 6.10085227272727  15.3041666666667 6.69460227272727  Z " fill-rule="nonzero" fill="#1890ff" stroke="none" transform="matrix(1 0 0 1 777 733 )" />
  </g>
</svg>